# xmcd CD database file
#
# Track frame offsets:
#	150
#	31352
#	68311
#	84330
#	107388
#	123318
#	143004
#	166291
#	186659
#	211361
#	229932
#	270589
#
# Disc length: 3792 seconds
#
# Revision: 0
# Processed by: cddbd v1.5PL3 Copyright (c) Steve Scherf et al.
# Submitted via: CDex 1.51
#
DISCID=9c0ece0c
DTITLE=Billy Ross - The Sound
DYEAR=1994
DGENRE=Jazz
TTITLE0=The Sound
TTITLE1=Lover Man (Oh Where Can You Be?)
TTITLE2=Four Brothers
TTITLE3=My Old Flame
TTITLE4=I Love You
TTITLE5=Move
TTITLE6=Early Autumn
TTITLE7=The Girl From Ipanema
TTITLE8=Body And Soul
TTITLE9=O Grande Amor
TTITLE10=Things Ain't What They Used To Be
TTITLE11=Blue Flame
EXTD=YEAR: 1994
EXTT0=
EXTT1=
EXTT2=
EXTT3=
EXTT4=
EXTT5=
EXTT6=
EXTT7=
EXTT8=
EXTT9=
EXTT10=
EXTT11=
PLAYORDER=
